<?xml version="1.0" encoding="utf-8"?>
<!-- Generator: Adobe Illustrator 21.0.0, SVG Export Plug-In . SVG Version: 6.00 Build 0)  -->
<svg version="1.1" id="Layer_1" xmlns="http://www.w3.org/2000/svg" xmlns:xlink="http://www.w3.org/1999/xlink" x="0px" y="0px" width="66px" height="66px" viewBox="0 0 66 66" style="enable-background:new 0 0 66 66;" xml:space="preserve">
<style type="text/css">
	.st0{fill:#535353;}
	.st1{fill:#FFFFFF;}
</style>
<path class="st0" d="M66,33c0,18.2-14.8,33-33,33S0,51.2,0,33S14.8,0,33,0S66,14.8,66,33z"/>
<path class="st1" d="M48.5,33.5c1,0,1.5-0.3,1.5-1.4c-0.1-1.6,0-3.1,0-4.7c-0.1-2.9-2.2-4.8-5.4-4.8c-3.3,0-5.5,1.8-5.6,4.8
	c-0.1,3.7-0.1,7.5,0,11.2c0,2.3,1.2,3.8,3.4,4.5s4.3,0.6,6.1-1c1.8-1.5,1.5-3.6,1.4-5.7c-1.1,0-2.2,0-3.3,0c0,0.9,0,1.7,0,2.5
	c-0.1,1.3-1,1.8-2.1,1.8s-2-0.5-2-1.7c-0.1-1.7,0-3.4,0-5.3C44.6,33.5,46.6,33.5,48.5,33.5z M42.5,30.9c0-1.3-0.1-2.5,0-3.7
	s1-1.6,2.1-1.6s2,0.4,2,1.6c0.1,1.2,0,2.3,0,3.7C45.2,30.9,43.9,30.9,42.5,30.9z M28.7,41.4c0-4.5,0-8.9,0-13.4
	c0-1.6,0.7-2.5,2.1-2.4c1.3,0,1.8,0.8,1.8,2.5c0,4.5,0,8.9,0,13.4c0,0.5,0,1,0,1.6c1.9,0,3.6,0,5.3,0c0-0.8,0-1.5,0-2.3
	c-0.7-0.1-1.3-0.1-2-0.2c0-4.2,0-8.3,0-12.3c0-0.9-0.1-1.8-0.3-2.6c-0.7-2.3-3-3.3-5.2-2.2c-0.6,0.3-1.1,0.8-1.7,1.2
	c-0.1,0.1-0.3,0.1-0.4,0.1c-0.1-0.4-0.1-0.9-0.2-1.2c-1.6,0-3.1,0-4.5,0c0,0.9,0,1.6,0,2.3c0.6,0.1,1.1,0.1,1.6,0.2
	c0,4.9,0,9.7,0,14.6c-0.5,0.1-0.9,0.2-1.3,0.2c0,0.8,0,1.5,0,2.3c1.6,0,3.1,0,4.8,0C28.7,42.4,28.7,41.9,28.7,41.4z M17.3,27.4
	c-0.1-3-2.3-4.8-5.6-4.8c-3.2,0-5.4,1.9-5.4,4.8c-0.1,3.7,0,7.5,0,11.2c0,2.2,1.2,3.7,3.2,4.4c2.2,0.7,4.3,0.6,6.1-0.9
	c1.9-1.6,1.6-3.7,1.5-5.8c-1.1,0-2.2,0-3.3,0c0,0.9,0,1.6,0,2.3c-0.1,1.2-0.9,2-2.1,1.9c-1.1-0.1-2-0.5-2-1.8c0-3.7,0-7.5,0-11.2
	c0-1.2,0.9-2,2.2-1.9c1.1,0.1,2,0.5,2,1.9c0,0.6,0.1,1.2,0.1,1.9c1.1,0,2.1,0,3.3,0C17.3,28.6,17.3,28,17.3,27.4z M52.6,21.6
	c0,6.3,0,10.2,0,16.5c0,0.8,0.1,1.6,0.3,2.3c0.4,1.5,1.4,2.4,2.9,2.6c1.2,0.1,2.5,0,3.9,0c0-0.8,0-1.5,0-2.3c-0.4,0-0.8-0.1-1.2-0.1
	C56.2,40.5,56,40.3,56,38c0-3,0-3.6,0-6.6c0-1.1,0-2.1,0-3.3c1.2,0,2.1,0,3.1,0c0-0.8,0-1.5,0-2.3c-1.1-0.1-2.1-0.1-3.2-0.2
	c0-1.8,0-3.4,0-5c-1.1,0-2.1,0-3.2,0C52.7,21,52.6,21.3,52.6,21.6z M19.5,52.4c0.8,0,1.5,0,2.2,0c0-13,0-25.9,0-38.8
	c-0.8,0-1.5,0-2.2,0C19.5,26.6,19.5,39.4,19.5,52.4z"/>
</svg>
