<!-- Generator: Adobe Illustrator 21.0.0, SVG Export Plug-In  -->
<svg version="1.1"
	 xmlns="http://www.w3.org/2000/svg" xmlns:xlink="http://www.w3.org/1999/xlink" xmlns:a="http://ns.adobe.com/AdobeSVGViewerExtensions/3.0/"
	 x="0px" y="0px" width="143px" height="45.7px" viewBox="0 0 143 45.7" style="enable-background:new 0 0 143 45.7;"
	 xml:space="preserve">
<style type="text/css">
	.st0{fill:#808183;}
</style>
<defs>
</defs>
<path class="st0" d="M49.4,21.1h-2.1v-5.5H35.8v5.5h-2.1V7.9h2.1v5.5h11.5V7.9h2.1V21.1z M67.2,17.2c0,1.2-0.3,2.1-1,2.8
	c-0.7,0.7-1.5,1.1-2.6,1.1h-8.5c-1.1,0-1.9-0.4-2.6-1.1s-1-1.6-1-2.8v-5.5c0-1.1,0.4-2,1.1-2.7c0.7-0.7,1.6-1.1,2.6-1.1h8.5
	c1,0,1.9,0.4,2.6,1.1c0.7,0.7,1,1.6,1,2.8V17.2z M65.2,17.2v-5.5c0-0.5-0.1-0.9-0.4-1.2c-0.3-0.3-0.6-0.4-1.1-0.4h-8.5
	c-0.4,0-0.8,0.2-1.1,0.5c-0.3,0.3-0.4,0.7-0.4,1.2v5.5c0,1.1,0.5,1.6,1.5,1.6h8.5C64.6,18.9,65.2,18.3,65.2,17.2z M85.1,10.2H73
	c-0.4,0-0.8,0.2-1.1,0.5c-0.3,0.3-0.4,0.7-0.4,1.1s0.1,0.8,0.4,1.1c0.3,0.3,0.7,0.5,1.1,0.5h8.5c1,0,1.8,0.4,2.6,1.1
	c0.7,0.7,1.1,1.7,1.1,2.7c0,1.1-0.4,2-1.1,2.7c-0.7,0.8-1.6,1.1-2.6,1.1H69.4v-2.2h12.1c0.4,0,0.8-0.2,1.1-0.5
	c0.3-0.3,0.4-0.7,0.4-1.1c0-0.4-0.1-0.8-0.4-1.1c-0.3-0.3-0.7-0.5-1.1-0.5H73c-1,0-1.8-0.4-2.6-1.1c-0.7-0.8-1.1-1.7-1.1-2.7
	s0.4-2,1.1-2.7C71.2,8.3,72,7.9,73,7.9h12.1V10.2z M103,10.2h-6.8v10.9h-2.1V10.2h-6.8V7.9H103V10.2z M107.2,21.1h-2.1V7.9h2.1V21.1
	z M125.1,21.1h-3l-10.6-10.7v10.7h-2.1V7.9h2.9L123,18.7V7.9h2.1V21.1z M142.9,21.1h-12.1c-1.1,0-2-0.4-2.6-1.1
	c-0.7-0.7-1-1.6-1-2.8v-5.5c0-1.1,0.3-2,1-2.8c0.7-0.7,1.5-1.1,2.6-1.1h12.1v2.2h-12.1c-0.5,0-0.8,0.1-1.1,0.4
	c-0.3,0.3-0.4,0.7-0.4,1.2v5.5c0,1.1,0.5,1.6,1.5,1.6h10v-3.2h-4.6v-2.2h6.7V21.1z M34.6,25.1h1.8c1,0,1.7,0,2.1,0.1
	c0.5,0.1,1,0.4,1.3,0.8c0.3,0.4,0.5,0.9,0.5,1.5c0,0.5-0.1,1-0.4,1.3c-0.2,0.4-0.6,0.7-1,0.9c-0.4,0.2-1,0.3-1.8,0.3l3.3,4.3h-1.1
	L36,30.1h-0.5v4.3h-0.9V25.1z M35.5,26v3.2l1.6,0c0.6,0,1.1-0.1,1.4-0.2c0.3-0.1,0.5-0.3,0.7-0.6c0.2-0.3,0.2-0.6,0.2-0.9
	c0-0.3-0.1-0.6-0.3-0.9c-0.2-0.3-0.4-0.4-0.7-0.5C38.2,26,37.8,26,37.1,26H35.5z M55.2,25.1h5.3V26h-4.4v2.9h4.3v0.9h-4.3v3.7h4.3
	v0.9h-5.3V25.1z M74.3,25.1h1l3.1,7.2l3.1-7.2h1l-4,9.3h-0.2L74.3,25.1z M96.7,25.1h0.9v9.3h-0.9V25.1z M112.6,25.1h5.3V26h-4.4v2.9
	h4.3v0.9h-4.3v3.7h4.3v0.9h-5.3V25.1z M131.8,25.1h0.9l1.9,6.7l2.6-6.7h0.2l2.6,6.7l1.9-6.7h0.9l-2.7,9.3h-0.2l-2.7-7.1l-2.8,7.1
	h-0.2L131.8,25.1z M20,45.7l-6.8-14.5l-1.5,6.5c0,0-15.8-19.8,2.3-22.3c0,0-6.5-7-12.3-0.5c0,0-7.8,7.3,9.3,24.8l-1.5,4.3L20,45.7z
	 M13.8,17.5c-2.9,0-5.3,2.4-5.3,5.3c0,2.9,2.4,5.3,5.3,5.3c2.9,0,5.3-2.4,5.3-5.3C19.1,19.9,16.7,17.5,13.8,17.5z M7,0l7.5,14.2
	l1.2-6.6c0,0,16.7,19-1.2,22.4c0,0,6.8,6.7,12.3-0.1c0,0,7.4-7.6-10.5-24.3l1.3-4.3L7,0z"/>
</svg>
