<!-- Generator: Adobe Illustrator 21.0.0, SVG Export Plug-In  -->
<svg version="1.1"
	 xmlns="http://www.w3.org/2000/svg" xmlns:xlink="http://www.w3.org/1999/xlink" xmlns:a="http://ns.adobe.com/AdobeSVGViewerExtensions/3.0/"
	 x="0px" y="0px" width="43px" height="51.9px" viewBox="0 0 43 51.9" style="enable-background:new 0 0 43 51.9;"
	 xml:space="preserve">
<style type="text/css">
	.st0{fill:#535353;}
	.st1{fill:#FFFFFF;}
</style>
<defs>
</defs>
<path class="st0" d="M0,0h43v51.9H0V0z"/>
<path class="st1" d="M39.6,28.6h-7.3V38c0,1-0.4,1.4-1.2,1.4s-1.2-0.4-1.2-1.4V13.8c0-0.8,0.4-1.3,1.2-1.3s1.2,0.5,1.2,1.3v8.4h7.3
	v-8.1c0-4-2-6.8-8.2-6.8s-9.2,2.4-9.2,6.8v23.5c0,4.5,3,6.9,9.2,6.9s8.2-2.9,8.2-6.9L39.6,28.6L39.6,28.6z M20.5,14.3
	c0-4.5-2.1-6.8-7.2-6.8H3.4v36.9h7.7V30.2h2.1c5.1,0,7.2-2.4,7.2-6.8V14.3L20.5,14.3z M11.1,24.8v-12c1.8,0,2.5,0.5,2.5,2.1v7.9
	C13.6,24.3,12.9,24.8,11.1,24.8z"/>
</svg>
