<?xml version="1.0" standalone="no"?><!-- Generator: Gravit.io --><svg xmlns="http://www.w3.org/2000/svg" xmlns:xlink="http://www.w3.org/1999/xlink" style="isolation:isolate" viewBox="0 0 176.515 30.349" width="176.515" height="30.349"><defs><clipPath id="_clipPath_AADkA8j7VPo1CZ16KzVzw3DYz11cvlQj"><rect width="176.515" height="30.349"/></clipPath></defs><g clip-path="url(#_clipPath_AADkA8j7VPo1CZ16KzVzw3DYz11cvlQj)"><path d=" M 14.988 8.101 L 10.629 8.101 L 10.629 1.579 L 3.571 1.579 L 3.571 8.101 L 0 8.101 L 0 12.67 L 3.571 12.67 L 3.571 22.266 C 3.571 28.123 5.107 29.868 11.127 29.868 C 12.414 29.868 13.701 29.702 14.988 29.66 L 14.988 24.468 C 14.365 24.468 13.743 24.551 13.162 24.551 C 11.625 24.551 10.629 24.177 10.629 22.474 L 10.629 12.67 L 14.988 12.67 L 14.988 8.101 Z " fill="rgb(40,111,141)"/><path d=" M 20.875 16.712 C 21.29 14.114 22.951 12.341 25.442 12.341 C 27.808 12.341 29.511 14.32 29.635 16.712 L 20.875 16.712 Z  M 36.693 20.63 C 37.025 13.371 33.164 7.598 25.442 7.598 C 19.09 7.598 13.817 12.299 13.817 18.856 C 13.817 26.032 18.591 30.239 25.608 30.239 C 30.424 30.239 35.032 28.094 36.32 23.145 L 29.718 23.145 C 29.054 24.713 27.393 25.496 25.691 25.496 C 22.702 25.496 21 23.558 20.875 20.63 L 36.693 20.63 Z " fill="rgb(40,111,141)"/><path d=" M 59.002 15.993 C 58.504 10.302 53.729 7.477 48.373 7.477 C 41.44 7.477 37.081 12.379 37.081 19.233 C 37.081 25.838 41.897 30.284 48.373 30.284 C 54.103 30.284 58.587 26.96 59.21 21.186 L 52.359 21.186 C 52.027 23.471 50.781 24.883 48.332 24.883 C 45.343 24.883 44.138 22.017 44.138 19.233 C 44.138 16.243 44.762 12.878 48.706 12.878 C 50.491 12.878 52.11 14.165 52.151 15.993 L 59.002 15.993 Z " fill="rgb(40,111,141)"/><path d=" M 59.361 29.66 L 66.42 29.66 L 66.42 17.904 C 66.42 15.536 67.582 13.293 70.239 13.293 C 74.1 13.293 73.768 16.284 73.768 19.233 L 73.768 29.66 L 80.826 29.66 L 80.826 15.827 C 80.826 12.712 80.245 7.477 73.062 7.477 C 70.488 7.477 67.582 8.848 66.502 11.05 L 66.42 11.05 L 66.42 0 L 59.361 0 L 59.361 29.66 Z " fill="rgb(40,111,141)"/><path d=" M 81.362 29.725 L 88.421 29.725 L 88.421 19.039 C 88.421 16.337 90.248 13.925 93.735 13.925 C 94.69 13.925 95.52 14.091 96.434 14.341 L 96.434 7.896 C 95.894 7.771 95.313 7.73 94.773 7.73 C 91.742 7.73 89.334 9.185 88.296 11.929 L 88.213 11.929 L 88.213 8.146 L 81.362 8.146 L 81.362 29.725 Z " fill="rgb(0,0,0)"/><path d=" M 102.568 23.53 C 102.568 21.825 103.897 21.16 105.474 20.785 C 107.011 20.37 108.837 20.245 109.834 19.621 C 110 24.07 108.879 25.983 105.516 25.983 C 103.939 25.983 102.568 25.276 102.568 23.53 Z  M 102.983 14.798 C 103.316 12.968 104.561 12.096 106.512 12.096 C 107.966 12.096 109.917 12.719 109.917 14.341 C 109.917 15.671 109.253 16.087 108.049 16.337 C 103.149 17.334 95.51 16.794 95.51 23.821 C 95.51 28.27 98.749 30.349 102.859 30.349 C 105.433 30.349 108.132 29.6 109.958 27.688 C 110.042 28.394 110.124 29.06 110.374 29.725 L 117.473 29.725 C 116.643 28.021 116.643 26.025 116.643 24.195 L 116.643 14.757 C 116.643 8.644 111.702 7.522 106.595 7.522 C 104.146 7.522 101.655 7.938 99.745 9.019 C 97.835 10.141 96.507 11.971 96.382 14.798 L 102.983 14.798 Z " fill="rgb(0,0,0)"/><path d=" M 128.193 12.905 C 131.265 12.905 132.386 15.778 132.386 18.9 C 132.386 21.648 131.639 24.937 128.193 24.937 C 124.954 24.937 123.875 21.648 123.875 18.692 C 123.875 15.944 124.954 12.905 128.193 12.905 Z  M 139.195 0 L 132.137 0 L 132.137 10.449 L 132.054 10.449 C 130.601 8.493 128.567 7.494 125.909 7.494 C 119.806 7.494 116.817 12.822 116.817 18.442 C 116.817 24.521 119.681 30.349 126.449 30.349 C 128.94 30.349 131.016 29.266 132.386 27.226 L 132.469 27.226 L 132.469 29.724 L 139.195 29.724 L 139.195 0 Z " fill="rgb(0,0,0)"/><path d=" M 146.342 23.53 C 146.342 21.825 147.67 21.16 149.248 20.785 C 150.784 20.37 152.611 20.245 153.607 19.621 C 153.773 24.07 152.652 25.983 149.289 25.983 C 147.712 25.983 146.342 25.276 146.342 23.53 Z  M 146.757 14.798 C 147.089 12.968 148.335 12.096 150.286 12.096 C 151.739 12.096 153.69 12.719 153.69 14.341 C 153.69 15.671 153.026 16.087 151.822 16.337 C 146.923 17.334 139.284 16.794 139.284 23.821 C 139.284 28.27 142.522 30.349 146.632 30.349 C 149.206 30.349 151.905 29.6 153.732 27.688 C 153.815 28.394 153.898 29.06 154.147 29.725 L 161.246 29.725 C 160.416 28.021 160.416 26.025 160.416 24.195 L 160.416 14.757 C 160.416 8.644 155.476 7.522 150.369 7.522 C 147.92 7.522 145.428 7.938 143.519 9.019 C 141.609 10.141 140.28 11.971 140.155 14.798 L 146.757 14.798 Z " fill="rgb(0,0,0)"/><path d=" M 161.443 29.725 L 168.502 29.725 L 168.502 19.039 C 168.502 16.337 170.329 13.925 173.816 13.925 C 174.771 13.925 175.601 14.091 176.515 14.341 L 176.515 7.896 C 175.975 7.771 175.394 7.73 174.854 7.73 C 171.823 7.73 169.415 9.185 168.377 11.929 L 168.294 11.929 L 168.294 8.146 L 161.443 8.146 L 161.443 29.725 Z " fill="rgb(0,0,0)"/><path d=" M 169.667 29.725 L 176.501 29.725 L 176.501 22.825 L 169.667 22.825 L 169.667 29.725 Z " fill-rule="evenodd" fill="rgb(233,58,151)"/></g></svg>