<!-- Generator: Adobe Illustrator 21.0.0, SVG Export Plug-In  -->
<svg version="1.1"
	 xmlns="http://www.w3.org/2000/svg" xmlns:xlink="http://www.w3.org/1999/xlink" xmlns:a="http://ns.adobe.com/AdobeSVGViewerExtensions/3.0/"
	 x="0px" y="0px" width="83px" height="59.9px" viewBox="0 0 83 59.9" style="enable-background:new 0 0 83 59.9;"
	 xml:space="preserve">
<style type="text/css">
	.st0{fill:#808183;}
</style>
<defs>
</defs>
<path class="st0" d="M49.9,59.9c-0.2,0-0.4,0-0.6,0c0,0,0,0,0,0c0,0-0.1,0-0.1,0c0,0-0.1,0-0.2-0.1c-0.1,0-0.1,0-0.2,0
	c-0.3-0.1-0.6-0.2-0.9-0.3c-0.7-0.4-1.2-1-1.5-1.7c-0.2-0.4-0.3-1-0.3-1.5c0-0.1,0-0.3,0-0.4c0-0.9,0-1.8,0-2.7c0-0.2,0-0.3,0-0.5
	c0,0,0-0.1,0-0.1c0,0,0,0,0,0c-0.1,0-0.2,0-0.3,0c-8.6,0-17.2,0-25.8,0c-0.1,0-0.2,0-0.3,0c-0.7,0-1.5,0-2.2,0c-0.2,0-0.4,0-0.7,0
	c-0.4,0-0.7,0-1.1-0.1c0,0,0,0-0.1,0c-0.2,0-0.4-0.1-0.7-0.1c-0.3-0.1-0.5-0.1-0.8-0.1c-0.4-0.1-0.9-0.2-1.3-0.3
	c-1-0.3-1.9-0.6-2.8-1c-1.4-0.7-2.7-1.5-3.9-2.5c-0.8-0.7-1.5-1.4-2.1-2.2c-0.8-1-1.5-2-2.1-3.2c-0.5-1-0.9-2-1.2-3.1
	c-0.1-0.5-0.3-1-0.4-1.6c0-0.1,0-0.3-0.1-0.4c0-0.2-0.1-0.4-0.1-0.6c0-0.3-0.1-0.5-0.1-0.8c0,0,0-0.1,0-0.1c0-0.1,0-0.2,0-0.4
	c0-0.6,0-1.2,0-1.8c0-0.1,0-0.2,0-0.3c0-0.2,0-0.3,0-0.5c0,0,0-0.1,0-0.1c0-0.2,0-0.4,0.1-0.6c0-0.2,0-0.3,0.1-0.5
	c0.1-0.3,0.1-0.7,0.2-1c0.2-0.7,0.4-1.3,0.6-2c0.4-1.1,0.9-2.1,1.5-3.1c1-1.6,2.3-3.1,3.7-4.3c0.9-0.7,1.9-1.4,2.9-2
	c0.5-0.3,1-0.5,1.5-0.7c0.5-0.2,0.9-0.3,1.4-0.3c0.1,0,0.1,0,0.2,0c0,0,0,0,0.1,0c0,0,0,0,0,0c0-0.1,0-0.3,0.1-0.4
	c0-0.2,0.1-0.4,0.1-0.6c0.1-0.3,0.1-0.7,0.2-1c0.1-0.5,0.2-0.8,0.4-1.5c0.3-1.1,0.7-2.1,1.2-3.2c0.6-1.3,1.3-2.4,2.1-3.5
	c0.9-1.2,1.9-2.4,3.1-3.4c1.3-1.1,2.7-2.1,4.2-2.9c0.9-0.5,1.8-0.9,2.8-1.2c0.6-0.2,1.2-0.4,1.9-0.6c0.3-0.1,0.6-0.2,1-0.2
	c0.3,0,0.5-0.1,0.8-0.1c0.1,0,0.2,0,0.4-0.1c0.1,0,0.2,0,0.4,0c0,0,0.1,0,0.1,0c0.1,0,0.2,0,0.3,0c0.1,0,0.1,0,0.2,0
	c0.2,0,0.3,0,0.5,0c0.1,0,0.1,0,0.2,0c0.2,0,0.3,0,0.5,0c0.1,0,0.1,0,0.2,0c0.1,0,0.2,0,0.3,0c0.4,0,0.8,0,1.2,0c0.1,0,0.1,0,0.2,0
	c0,0,0.1,0,0.1,0c0,0,0.1,0,0.1,0c0.2,0,0.4,0,0.6,0c0.2,0,0.5,0,0.7,0.1c0.2,0,0.4,0.1,0.6,0.1c0.2,0,0.3,0,0.5,0.1
	c0.2,0,0.5,0.1,0.7,0.1c0.4,0.1,0.7,0.2,1.1,0.3c0.9,0.2,1.8,0.5,2.6,0.9c2.8,1.2,5.3,2.8,7.4,5.1c0.6,0.7,1.2,1.4,1.7,2.1
	c0,0.1,0.1,0.1,0.1,0.2c0,0,0,0,0.1,0c0.1,0,0.1-0.1,0.2-0.1c0.7-0.4,1.5-0.7,2.2-1c0.5-0.2,1-0.3,1.6-0.5c0.5-0.1,0.5-0.1,1.1-0.2
	c0.1,0,0.2,0,0.3-0.1c0.1,0,0.2,0,0.4,0c0,0,0.1,0,0.1,0c0.1,0,0.2,0,0.3,0c0.1,0,0.1,0,0.2,0c0.2,0,0.4,0,0.7,0c0.4,0,0.8,0,1.1,0
	c0.3,0,0.5,0,0.8,0c0,0,0.1,0,0.1,0C60,6.9,60.2,7,60.5,7c0.3,0.1,0.6,0.1,0.9,0.1c0.3,0.1,0.6,0.1,0.9,0.2c0.6,0.1,1.2,0.3,1.8,0.5
	c1.2,0.4,2.3,1,3.3,1.7c1.3,0.9,2.4,1.9,3.4,3.1c0.6,0.8,1.2,1.6,1.7,2.4c0.3,0.5,0.6,1.1,0.8,1.7c0.4,0.9,0.7,1.9,0.9,2.9
	c0,0.2,0.1,0.3,0.1,0.5c0,0,0,0.1,0.1,0.1c0.1,0.1,0.2,0.1,0.3,0.2c1.2,0.7,2.3,1.6,3.3,2.5c1.2,1.2,2.2,2.5,3,3.9
	c0.6,1,1,2,1.4,3.1c0.2,0.6,0.3,1.1,0.5,1.7c0,0.2,0.1,0.5,0.1,0.7c0,0.2,0,0.3,0.1,0.5c0,0.2,0,0.4,0.1,0.6c0,0,0,0,0,0
	c0,0.1,0,0.2,0,0.3c0,0,0,0,0,0.1c0,0,0,0.1,0,0.1c0,0.9,0,1.9,0,2.8c0,0,0,0,0,0c0,0.1,0,0.1,0,0.2c0,0.1,0,0.1,0,0.2
	c0,0.1,0,0.1,0,0.2c0,0.2,0,0.4-0.1,0.6c0,0.3-0.1,0.6-0.2,0.9c-0.1,0.5-0.2,1.1-0.4,1.5c-0.5,1.6-1.2,3.1-2.2,4.6
	c-0.9,1.4-2.1,2.6-3.4,3.7c-1.5,1.2-3.1,2.2-4.9,2.8c-0.7,0.3-1.2,0.4-1.9,0.6c-0.3,0.1-0.6,0.1-0.9,0.2c-0.1,0-0.3,0-0.4,0.1
	c-0.1,0-0.2,0-0.3,0c-0.1,0-0.2,0-0.3,0c0,0-0.1,0-0.1,0c-0.1,0-0.2,0-0.3,0c-0.1,0-0.1,0-0.2,0c-0.2,0-0.4,0-0.6,0
	c-0.1,0-0.2,0-0.3,0c-0.2,0-0.3,0-0.5,0c-0.2,0-0.4,0-0.7,0c-0.7,0-1.3,0-2,0c-1.5,0-3,0-4.4,0c-0.1,0-0.2,0-0.3,0c0,0,0,0-0.1,0
	c-0.1,0.1-0.1,0.1-0.2,0.2c-2,1.9-4.1,3.9-6.1,5.8c-0.1,0.1-0.1,0.1-0.2,0.2c-0.1,0.1-0.3,0.2-0.4,0.3c-0.3,0.2-0.5,0.4-0.8,0.5
	c-0.3,0.1-0.6,0.2-0.8,0.3c0,0-0.1,0-0.1,0C50.1,59.8,50,59.8,49.9,59.9C49.9,59.9,49.9,59.9,49.9,59.9z M32.6,49.4
	c0.2,0,0.4,0,0.6,0c5.2,0,10.4,0,15.7,0c0.1,0,0.1,0,0.2,0c0,0,0.1,0,0.1,0c0,0,0,0,0.1,0.1c0,0,0,0,0,0.1c0,0.1,0,0.2,0,0.3
	c0,2,0,3.9,0,5.9c0,0.1,0,0.2,0,0.4c0,0.1,0,0.1,0,0.2c0,0.1,0,0.2,0.1,0.3c0.1,0.1,0.2,0.2,0.3,0.2c0.1,0,0.1,0,0.2-0.1
	c0.1,0,0.2-0.1,0.3-0.2c0.1-0.1,0.2-0.1,0.2-0.2c2.3-2.2,4.5-4.3,6.8-6.5c0.1-0.1,0.1-0.1,0.2-0.2c0,0,0.1-0.1,0.1-0.1
	c0.1-0.1,0.2-0.1,0.4-0.1c0.1,0,0.2,0,0.3,0c0.4,0,0.8,0,1.2,0c2,0,4,0,6,0c0.2,0,0.5,0,0.7,0c0.3,0,0.5,0,0.8,0c0,0,0.1,0,0.1,0
	c0.2,0,0.4,0,0.6-0.1c0.1,0,0.2,0,0.3,0c0.2,0,0.4,0,0.5-0.1c0.3,0,0.6-0.1,0.9-0.2c0.7-0.2,1.1-0.3,1.9-0.6
	c1.2-0.5,2.2-1.1,3.2-1.8c0.9-0.7,1.7-1.4,2.4-2.2c1.1-1.3,2-2.9,2.6-4.5c0.2-0.6,0.3-1.1,0.4-1.6c0-0.2,0.1-0.5,0.1-0.7
	c0-0.2,0.1-0.3,0.1-0.5c0-0.3,0.1-0.5,0.1-0.8c0,0,0-0.1,0-0.1c0-0.2,0-0.4,0-0.5c0-0.3,0-0.5,0-0.8c0-0.4,0-0.7-0.1-1.1
	c0,0,0,0,0,0c0-0.2,0-0.4-0.1-0.6c0-0.3-0.1-0.5-0.1-0.8c-0.1-0.5-0.3-1-0.4-1.6c-0.3-1-0.8-2-1.4-3c-0.6-1-1.3-1.9-2.2-2.7
	c-1.1-1.1-2.4-2-3.9-2.7c-0.1,0-0.1-0.1-0.2-0.1c0,0-0.1,0-0.1-0.1c-0.1-0.1-0.1-0.1-0.1-0.2c0-0.1,0-0.3,0-0.4
	c0-0.2-0.1-0.5-0.1-0.7c0-0.3-0.1-0.5-0.1-0.8c-0.1-0.5-0.2-0.9-0.4-1.4c-0.2-0.7-0.5-1.3-0.9-1.9c-0.5-1-1.2-1.9-1.9-2.7
	c-0.7-0.8-1.5-1.5-2.4-2.1c-0.8-0.5-1.7-0.9-2.6-1.3c-0.6-0.2-1.3-0.4-1.9-0.5c-0.1,0-0.3-0.1-0.4-0.1c-0.1,0-0.3-0.1-0.4-0.1
	c-0.2,0-0.5-0.1-0.7-0.1c0,0,0,0-0.1,0c-0.1,0-0.3,0-0.4,0c-0.4,0-0.7,0-1.1,0c-0.2,0-0.4,0-0.7,0c0,0-0.1,0-0.1,0
	c-0.2,0-0.4,0.1-0.6,0.1c-0.2,0.1-0.5,0.1-0.7,0.1c-0.5,0.1-0.9,0.2-1.5,0.4c-1.6,0.6-3.1,1.4-4.3,2.6c-0.1,0-0.1,0.1-0.2,0.1
	c0,0,0,0-0.1,0c0,0-0.1,0-0.1,0c0,0,0-0.1-0.1-0.1c0-0.1-0.1-0.2-0.1-0.3c-0.1-0.3-0.3-0.5-0.4-0.8c-0.6-1.1-1.3-2.1-2.1-3
	c-0.7-0.8-1.5-1.6-2.4-2.3c-1.4-1.1-2.8-1.9-4.4-2.6c-0.7-0.3-1.4-0.5-2.1-0.7c-0.3-0.1-0.6-0.1-0.8-0.2c-0.2,0-0.4-0.1-0.7-0.1
	c-0.2,0-0.4-0.1-0.7-0.1c-0.1,0-0.1,0-0.2,0s-0.1,0-0.2,0c-0.1,0-0.3,0-0.4,0c-0.1,0-0.1,0-0.2,0c-0.1,0-0.2,0-0.4,0
	c-0.7,0-1.3,0-2,0c-0.1,0-0.2,0-0.3,0c-0.1,0-0.3,0-0.4,0c0,0-0.1,0-0.1,0c-0.2,0-0.4,0-0.7,0.1c-0.3,0-0.6,0.1-0.9,0.1
	c-0.4,0.1-0.8,0.2-1.1,0.3c-0.5,0.1-1.1,0.3-1.6,0.5c-1,0.4-2.1,0.9-3,1.4c-1.6,0.9-3,2-4.2,3.4c-0.7,0.8-1.3,1.6-1.8,2.4
	c-0.9,1.3-1.5,2.8-2,4.3c-0.2,0.6-0.3,1.1-0.4,1.7c-0.1,0.3-0.1,0.5-0.1,0.8c0,0.2,0,0.3-0.1,0.5c0,0.1,0,0.2,0,0.4
	c0,0.1,0,0.1,0,0.2c0,0.1,0,0.3,0,0.4c0,0.1,0,0.2,0,0.3c0,0.2,0,0.4,0,0.6c0,0.3,0,0.5,0,0.8c0,0.8,0,1.6,0,2.5c0,3,0,6,0,9.1
	c0,0.1,0,0.3,0,0.4c0,0,0,0.1,0,0.1c0,0,0,0,0,0c0,0,0.1,0,0.1,0c0.1-0.1,0.1-0.2,0.2-0.3c1.2-1.5,2.3-2.9,3.5-4.4
	c0.1-0.2,0.3-0.4,0.4-0.6c0.1-0.1,0.1-0.1,0.2-0.2c0,0,0,0,0.1-0.1c0,0,0.1,0,0.1,0c0.1,0,0.1,0.1,0.2,0.2c0.3,0.4,0.6,0.7,0.9,1.1
	c1.1,1.4,2.2,2.8,3.3,4.2c0,0,0,0,0.1,0.1c0,0,0.1,0,0.1,0c0,0,0,0,0,0c0-0.1,0-0.2,0-0.3c0-3.1,0-6.1,0-9.2c0-1,0-2,0-3
	c0-0.1,0-0.1,0-0.2c0,0,0-0.1,0-0.1c0,0,0,0,0-0.1c0,0,0.1,0,0.1,0c0.1,0,0.1,0,0.2,0c0.9,0,1.8,0,2.8,0c0.1,0,0.1,0,0.2,0
	c0,0,0.1,0,0.1,0c0,0,0,0,0,0c0,0,0,0.1,0,0.1c0,0.1,0,0.2,0,0.3c0,6,0,12.1,0,18.1c0,0.1,0,0.1,0,0.2c0,0,0,0.1,0,0.1
	c0,0,0,0,0,0.1c0,0,0,0.1-0.1,0.1c0,0-0.1,0-0.1,0c-0.1,0-0.2,0-0.3,0c-0.3,0-0.6,0-0.9,0c-0.5,0-1.1,0-1.6,0c-0.1,0-0.2,0-0.2,0
	c-0.1,0-0.1,0-0.2-0.1c0,0-0.1-0.1-0.1-0.1c0,0-0.1-0.1-0.1-0.1c-1.2-1.7-2.4-3.3-3.7-5c-0.2-0.3-0.4-0.5-0.6-0.8
	c0,0-0.1-0.1-0.1-0.1c0,0-0.1,0-0.1,0c0,0,0,0-0.1,0.1c0,0.1-0.1,0.1-0.1,0.2c-1,1.4-2.1,2.8-3.1,4.2c-0.4,0.5-0.7,1-1.1,1.4
	c0,0.1-0.1,0.1-0.1,0.2c-0.1,0.1-0.2,0.1-0.3,0.1c-0.1,0-0.2,0-0.2,0c-0.8,0-1.6,0-2.4,0c-0.1,0-0.2,0-0.3,0c0,0-0.1,0-0.1,0
	c0,0-0.1,0-0.1-0.1c0-0.1,0-0.1,0-0.2c0-0.2,0-0.4,0-0.6c0-0.6,0-1.2,0-1.8c0-4.2,0-8.4,0-12.6c0-0.1,0-0.2,0-0.3c0-0.4,0-0.9,0-1.3
	c0,0,0-0.1,0-0.1c0,0,0-0.1,0-0.1c0,0,0,0-0.1,0c0,0-0.1,0-0.1,0c-0.4,0.1-0.7,0.3-1,0.5c-0.5,0.3-1,0.5-1.4,0.8
	c-0.9,0.6-1.7,1.2-2.4,2c-1.2,1.2-2.1,2.7-2.8,4.2c-0.4,1-0.8,2.2-1,3.4c0,0.3-0.1,0.5-0.1,0.8c0,0.1,0,0.1,0,0.2c0,0.1,0,0.2,0,0.2
	c0,0.6,0,1.2,0,1.8c0,0.1,0,0.1,0,0.2c0,0.2,0,0.5,0.1,0.7c0,0.3,0.1,0.6,0.1,0.9c0.1,0.5,0.2,1,0.4,1.5c0.3,1.1,0.8,2.1,1.3,3
	c0.6,1,1.3,2,2.2,2.8c0.5,0.5,1.1,1,1.7,1.5c0.8,0.6,1.7,1.1,2.7,1.5c0.9,0.4,1.9,0.7,2.9,0.9c0.3,0.1,0.6,0.1,0.9,0.1
	c0.1,0,0.2,0,0.3,0c0.2,0,0.3,0,0.5,0c0.1,0,0.2,0,0.3,0c0.2,0,0.3,0,0.5,0c0.2,0,0.4,0,0.7,0c0.6,0,1.3,0,1.9,0
	C23.9,49.4,28.2,49.4,32.6,49.4z M56.2,29.9c0,3.1,0,6.1,0,9.2c0,0.1,0,0.1,0,0.2c0,0,0,0.1,0,0.1c0,0.1,0.1,0.1,0.1,0.1
	c0.1,0,0.1,0,0.2,0c0.2,0,0.4,0,0.6,0c0.7,0,1.4,0,2.1,0c0.1,0,0.2,0,0.3,0c0,0,0.1,0,0.1,0c0,0,0,0,0.1-0.1c0,0,0-0.1,0-0.1
	c0-0.1,0-0.2,0-0.3c0-3.1,0-6.2,0-9.3c0-1.8,0-3.6,0-5.4c0-0.1,0-0.2,0-0.3c0,0,0-0.1,0-0.1c0,0,0.1-0.1,0.1-0.1c0.1,0,0.1,0,0.2,0
	c0.3,0,0.6,0,1,0c0.8,0,1.5,0,2.3,0c0.3,0,0.6,0,1,0.1c0.2,0.1,0.4,0.1,0.7,0.2c0.5,0.2,0.8,0.6,1.1,1c0.1,0.2,0.2,0.3,0.2,0.5
	c0.1,0.2,0.1,0.4,0.1,0.6c0,0.3,0,0.6,0,0.9c-0.1,0.3-0.2,0.6-0.4,0.9c-0.2,0.2-0.3,0.4-0.5,0.6c-0.3,0.2-0.6,0.4-1,0.5
	c-0.2,0.1-0.5,0.1-0.7,0.1c-0.1,0-0.2,0-0.3,0c-0.4,0-0.8,0-1.1,0c-0.2,0-0.4,0-0.6,0c0,0-0.1,0-0.1,0c-0.1,0-0.1,0.1-0.1,0.1
	c0,0,0,0.1,0,0.1c0,0.2,0,0.4,0,0.6c0,0.6,0,1.3,0,1.9c0,0.1,0,0.1,0,0.2c0,0.2,0.1,0.4,0.2,0.6c0,0.1,0.1,0.2,0.2,0.3
	c0,0.1,0.1,0.1,0.1,0.2c0.5,0.6,1,1.2,1.5,1.8c1.1,1.3,2.2,2.6,3.3,4c0,0,0.1,0.1,0.1,0.1c0,0,0.1,0.1,0.1,0.1
	c0.1,0,0.1,0.1,0.2,0.1c0.1,0,0.2,0,0.3,0c0.3,0,0.7,0,1,0c0.8,0,1.6,0,2.5,0c0.1,0,0.2,0,0.3,0c0,0,0.1,0,0.1,0c0,0,0,0,0-0.1
	c0,0,0-0.1,0-0.1c-0.1-0.1-0.1-0.2-0.2-0.2c-0.9-1.1-1.8-2.1-2.7-3.2c-0.8-1-1.6-1.9-2.5-2.9c-0.1-0.1-0.1-0.2-0.2-0.2
	c0,0,0-0.1-0.1-0.1c0,0,0-0.1,0-0.1c0,0,0,0,0,0c0.1,0,0.1,0,0.2-0.1c0.6-0.2,1.2-0.5,1.8-0.9c0.6-0.4,1.1-0.9,1.4-1.6
	c0.4-0.6,0.6-1.3,0.8-2c0-0.2,0.1-0.3,0.1-0.5c0-0.1,0-0.3,0-0.4c0-0.2,0-0.3,0-0.5c0-0.4-0.1-0.8-0.1-1.2c-0.1-0.5-0.2-0.9-0.4-1.3
	c-0.5-1.1-1.2-1.9-2.2-2.6c-0.5-0.3-1.1-0.6-1.7-0.8c-0.3-0.1-0.8-0.2-1.1-0.2c-0.1,0-0.1,0-0.2,0c-0.1,0-0.2,0-0.4,0
	c-0.1,0-0.2,0-0.3,0c-1.7,0-3.4,0-5,0c-0.5,0-0.9,0-1.4,0c-0.1,0-0.3,0-0.4,0c0,0-0.1,0-0.1,0c0,0-0.1,0-0.1,0c0,0,0,0.1,0,0.1
	c0,0.1,0,0.1,0,0.2c0,0.3,0,0.6,0,0.9c0,1.9,0,3.8,0,5.7C56.2,28.2,56.2,29,56.2,29.9C56.2,29.9,56.2,29.9,56.2,29.9z M45.8,29.9
	c0-2.7,0-5.4,0-8.2c0-0.4,0-0.7,0-1.1c0-0.1,0-0.1,0-0.2c0,0,0-0.1-0.1-0.1c0,0-0.1,0-0.1,0c-0.1,0-0.2,0-0.3,0c-0.9,0-1.8,0-2.6,0
	c0,0-0.1,0-0.1,0c0,0-0.1,0-0.1,0c0,0-0.1,0.1-0.1,0.1c0,0,0,0.1,0,0.1c0,0.5,0,0.9,0,1.4c0,2.3,0,4.5,0,6.8c0,0.1,0,0.2,0,0.3
	c0,0,0,0.1,0,0.1c0,0-0.1,0.1-0.1,0.1c-0.1,0-0.2,0-0.3,0c-0.3,0-0.6,0-0.9,0c-1.4,0-2.7,0-4.1,0c-0.1,0-0.2,0-0.3,0
	c0,0-0.1,0-0.1,0c-0.1,0-0.1,0.1-0.1,0.1c0,0.1,0,0.2,0,0.3c0,0.9,0,1.8,0,2.6c0,0.1,0,0.1,0,0.2c0,0,0,0.1,0,0.1c0,0,0,0.1,0.1,0.1
	c0,0,0.1,0,0.1,0c0.1,0,0.2,0,0.3,0c1.6,0,3.2,0,4.9,0c0.1,0,0.2,0,0.4,0c0,0,0.1,0,0.1,0c0,0,0.1,0.1,0.1,0.1c0,0.1,0,0.2,0,0.3
	c0,2,0,3.9,0,5.9c0,0.1,0,0.2,0,0.3c0,0,0,0.1,0,0.1c0,0,0,0,0.1,0.1c0,0,0.1,0,0.1,0c0.1,0,0.1,0,0.2,0c0.9,0,1.8,0,2.6,0
	c0.1,0,0.2,0,0.3,0c0,0,0.1,0,0.1,0c0,0,0.1-0.1,0.1-0.1c0-0.1,0-0.1,0-0.2C45.8,36.1,45.8,33,45.8,29.9
	C45.8,29.9,45.8,29.9,45.8,29.9z M52.7,29.9c0-3,0-6,0-9c0-0.1,0-0.2,0-0.3c0,0,0-0.1,0-0.1c0,0,0-0.1-0.1-0.1c0,0-0.1,0-0.1,0
	c-0.2,0-0.3,0-0.5,0c-0.8,0-1.5,0-2.3,0c-0.1,0-0.1,0-0.2,0c0,0-0.1,0-0.1,0c0,0-0.1,0-0.1,0.1c0,0,0,0.1,0,0.1c0,0.1,0,0.2,0,0.3
	c0,1,0,2,0,3c0,4.9,0,9.8,0,14.7c0,0.2,0,0.3,0,0.5c0,0,0,0.1,0,0.1c0,0,0,0.1,0,0.1c0,0,0.1,0.1,0.1,0.1c0.1,0,0.2,0,0.3,0
	c0.9,0,1.9,0,2.8,0c0,0,0.1,0,0.1,0c0,0,0.1-0.1,0.1-0.1c0,0,0-0.1,0-0.1C52.7,36.1,52.7,33,52.7,29.9
	C52.7,29.9,52.7,29.9,52.7,29.9z M34.9,29.9c0-3,0-6,0-9c0-0.1,0-0.2,0-0.3c0,0,0-0.1,0-0.1c0,0,0-0.1-0.1-0.1c0,0-0.1,0-0.1,0
	c-0.1,0-0.1,0-0.2,0c-0.8,0-1.5,0-2.3,0c-0.2,0-0.4,0-0.6,0c-0.1,0-0.1,0-0.2,0c0,0,0,0-0.1,0.1c0,0.1,0,0.1,0,0.2
	c0,0.6,0,1.3,0,1.9c0,5.4,0,10.9,0,16.3c0,0.1,0,0.2,0,0.3c0,0,0,0.1,0,0.1c0,0,0,0.1,0.1,0.1c0,0,0.1,0,0.1,0c0.1,0,0.1,0,0.2,0
	c0.9,0,1.8,0,2.6,0c0.1,0,0.2,0,0.3,0c0,0,0.1,0,0.1,0c0,0,0.1-0.1,0.1-0.1c0,0,0-0.1,0-0.1c0-0.1,0-0.2,0-0.3
	C34.9,35.9,34.9,32.9,34.9,29.9C34.9,29.9,34.9,29.9,34.9,29.9z M38.1,42.7c0-0.2,0-0.4,0-0.6c0-0.1,0-0.1,0-0.2
	c0-0.1,0-0.1-0.1-0.2c0,0-0.1-0.1-0.2-0.1c-0.1,0-0.1,0-0.2,0c-0.1,0-0.3,0-0.4,0c0,0-0.1,0-0.1,0c0,0-0.1,0-0.1,0.1
	c0,0.1,0,0.1,0,0.2c0,0.4,0,0.9,0,1.3c0,0.4,0,0.9,0,1.3c0,0,0,0,0,0.1c0,0,0,0.1-0.1,0.1c0,0,0,0,0,0c0,0,0,0,0,0
	c0-0.1,0-0.1-0.1-0.2c-0.2-0.4-0.3-0.9-0.5-1.3c-0.2-0.4-0.3-0.9-0.5-1.3c0,0,0-0.1-0.1-0.1c0,0,0-0.1-0.1-0.1c0,0-0.1,0-0.1,0
	c-0.3,0-0.6,0-0.9,0c0,0-0.1,0-0.1,0c0,0,0,0-0.1,0c0,0,0,0-0.1,0c0,0-0.1,0-0.1,0.1c0,0.1,0,0.1,0,0.2c0,1.2,0,2.4,0,3.6
	c0,0.2,0,0.4,0,0.5c0,0,0,0.1,0,0.1c0,0,0,0.1,0,0.1c0,0.1,0.1,0.1,0.2,0.2c0,0,0.1,0,0.1,0c0.1,0,0.3,0,0.4,0c0,0,0,0,0.1,0
	c0,0,0.1-0.1,0.1-0.1c0,0,0-0.1,0-0.1c0-0.2,0-0.4,0-0.5c0-0.7,0-1.4,0-2.1c0-0.1,0-0.1,0-0.2c0,0,0-0.1,0-0.1c0,0,0.1,0,0.1,0
	c0,0.1,0.1,0.2,0.1,0.3c0.1,0.4,0.3,0.7,0.4,1.1c0.2,0.5,0.4,1.1,0.6,1.6c0,0.1,0,0.1,0.1,0.2c0,0,0.1,0.1,0.1,0.1c0,0,0.1,0,0.1,0
	c0.3,0,0.6,0,0.9,0c0,0,0.1,0,0.1,0c0,0,0.1,0,0.1-0.1c0,0,0-0.1,0-0.1c0-0.1,0-0.1,0-0.2c0-0.7,0-1.3,0-2
	C38.1,43.7,38.1,43.2,38.1,42.7z M63.7,44.2c0-0.7,0-1.4,0-2.1c0-0.1,0-0.2,0-0.2c0,0,0-0.1,0.1-0.1c0,0,0.1,0,0.1,0
	c0.1,0,0.1,0,0.2,0c0.3,0,0.6,0,0.9,0c0.1,0,0.2,0,0.3,0c0.2,0,0.3,0,0.5,0c0.1,0,0.3,0.1,0.4,0.1c0.2,0.1,0.4,0.2,0.5,0.5
	c0.1,0.1,0.1,0.3,0.2,0.4c0,0,0,0,0,0.1c0.1,0.3,0.1,0.5,0.1,0.8c0,0.2,0,0.4,0,0.7c0,0.2,0,0.3,0,0.5c0,0.1,0,0.2,0,0.2
	c0,0.2-0.1,0.4-0.1,0.6c0,0.2-0.1,0.3-0.2,0.5c-0.2,0.2-0.4,0.4-0.6,0.5c-0.2,0.1-0.3,0.1-0.5,0.1c-0.1,0-0.1,0-0.2,0
	c-0.5,0-0.9,0-1.4,0c0,0-0.1,0-0.1,0c-0.1,0-0.1-0.1-0.1-0.1c0,0,0-0.1,0-0.1c0-0.1,0-0.3,0-0.4C63.7,45.4,63.7,44.8,63.7,44.2
	C63.7,44.2,63.7,44.2,63.7,44.2z M64.7,44.2C64.7,44.2,64.7,44.2,64.7,44.2c0,0.3,0,0.6,0,0.9c0,0.2,0,0.3,0,0.5c0,0.1,0,0.1,0,0.2
	c0,0.1,0.1,0.1,0.1,0.1c0,0,0.1,0,0.1,0c0.1,0,0.1,0,0.2,0c0.1,0,0.2,0,0.3,0c0.2,0,0.3-0.1,0.3-0.3c0-0.1,0.1-0.1,0.1-0.2
	c0-0.1,0.1-0.3,0.1-0.4c0-0.1,0-0.1,0-0.2c0-0.3,0-0.6,0-0.9c0-0.2,0-0.3,0-0.5c0-0.1,0-0.3-0.1-0.4c0,0,0-0.1-0.1-0.1
	c-0.1-0.1-0.2-0.2-0.3-0.3c-0.2,0-0.3,0-0.5,0c0,0-0.1,0-0.1,0c0,0,0,0,0,0.1c0,0.1,0,0.1,0,0.2C64.7,43.3,64.7,43.7,64.7,44.2z
	 M19.3,44.2c0-0.7,0-1.3,0-2c0-0.1,0-0.2,0-0.3c0,0,0-0.1,0-0.1c0,0,0-0.1-0.1-0.1c0,0-0.1,0-0.1,0c-0.2,0-0.4,0-0.6,0
	c0,0,0,0-0.1,0c0,0,0,0-0.1,0c-0.1,0-0.1,0.1-0.1,0.1c0,0.1,0,0.1,0,0.2c0,0.4,0,0.8,0,1.2c0,0.1,0,0.1,0,0.2c0,0,0,0.1,0,0.1
	c0,0-0.1,0.1-0.1,0.1c0,0-0.1,0-0.1,0c-0.2,0-0.4,0-0.6,0c-0.1,0-0.1,0-0.2,0c0,0-0.1,0-0.1,0c0,0-0.1,0-0.1-0.1c0,0,0,0,0-0.1
	c0-0.1,0-0.2,0-0.3c0-0.4,0-0.8,0-1.3c0-0.1,0-0.1,0-0.2c0,0,0-0.1-0.1-0.1c0,0,0,0-0.1,0c-0.2,0-0.5,0-0.7,0c0,0-0.1,0-0.1,0
	c0,0,0,0-0.1,0.1c0,0,0,0.1,0,0.1c0,0.1,0,0.2,0,0.3c0,1.2,0,2.5,0,3.7c0,0.1,0,0.3,0,0.4c0,0,0,0.1,0,0.1c0,0.1,0.1,0.1,0.1,0.1
	c0,0,0.1,0,0.1,0c0.2,0,0.4,0,0.6,0c0,0,0.1,0,0.1,0c0,0,0.1,0,0.1,0c0,0,0,0,0-0.1c0,0,0-0.1,0-0.1c0-0.4,0-0.9,0-1.3
	c0-0.1,0-0.3,0-0.4c0,0,0-0.1,0-0.1c0,0,0.1-0.1,0.1-0.1c0,0,0.1,0,0.1,0c0.3,0,0.5,0,0.8,0c0,0,0,0,0.1,0c0.1,0,0.1,0.1,0.1,0.1
	c0,0,0,0.1,0,0.1c0,0.5,0,0.9,0,1.4c0,0.1,0,0.2,0,0.3c0,0,0,0.1,0,0.1c0,0,0,0.1,0.1,0.1c0,0,0.1,0,0.1,0c0.2,0,0.4,0,0.6,0
	c0,0,0.1,0,0.1,0c0,0,0.1-0.1,0.1-0.1c0-0.1,0-0.1,0-0.2C19.3,45.6,19.3,44.9,19.3,44.2C19.3,44.2,19.3,44.2,19.3,44.2z M23.7,44.2
	c0,0.2,0,0.4,0,0.7c0,0.2,0,0.4-0.1,0.7c0,0.2-0.1,0.3-0.2,0.5c-0.1,0.2-0.3,0.4-0.5,0.5c-0.1,0.1-0.2,0.1-0.3,0.1
	c-0.3,0.1-0.6,0.1-0.9,0c-0.1,0-0.3,0-0.4-0.1c-0.3-0.1-0.6-0.3-0.7-0.6c0-0.1,0-0.1-0.1-0.2c-0.1-0.2-0.1-0.5-0.1-0.8
	c0-0.2,0-0.4,0-0.6c0-0.1,0-0.3,0-0.4c0-0.1,0-0.2,0-0.4c0-0.2,0-0.4,0.1-0.6c0-0.2,0.1-0.4,0.2-0.6c0.2-0.3,0.4-0.5,0.7-0.6
	c0.2-0.1,0.4-0.1,0.6-0.1c0.1,0,0.2,0,0.3,0c0.2,0,0.4,0,0.6,0.1c0.3,0.1,0.5,0.3,0.7,0.5c0.1,0.1,0.1,0.2,0.2,0.4
	c0.1,0.2,0.1,0.4,0.1,0.6C23.7,43.6,23.7,43.9,23.7,44.2z M22.6,44.2C22.6,44.2,22.6,44.2,22.6,44.2c0-0.1,0-0.1,0-0.2
	c0-0.2,0-0.4,0-0.7c0-0.1,0-0.3-0.1-0.4c0-0.1-0.1-0.2-0.1-0.2c0-0.1-0.1-0.1-0.2-0.2c0,0,0,0-0.1,0c-0.1,0-0.3,0-0.4,0
	c0,0,0,0-0.1,0c-0.1,0-0.2,0.1-0.2,0.2c-0.1,0.1-0.1,0.2-0.1,0.3c0,0.2-0.1,0.3-0.1,0.5c0,0.5,0,0.9,0,1.4c0,0.2,0,0.3,0.1,0.5
	c0,0.1,0.1,0.2,0.1,0.3c0.1,0.2,0.3,0.3,0.5,0.3c0,0,0.1,0,0.1,0c0,0,0.1,0,0.1,0c0.2,0,0.3-0.1,0.3-0.3c0-0.1,0-0.1,0.1-0.2
	c0-0.2,0.1-0.3,0.1-0.5c0-0.2,0-0.4,0-0.6C22.6,44.3,22.6,44.2,22.6,44.2z M54.9,44.2c0-0.2,0-0.3,0-0.5c0-0.2,0-0.5,0.1-0.7
	c0-0.2,0.1-0.4,0.2-0.6c0.1-0.2,0.2-0.3,0.4-0.4c0.2-0.1,0.3-0.2,0.5-0.2c0.2,0,0.4,0,0.6-0.1c0.2,0,0.4,0,0.6,0.1
	c0.1,0,0.3,0.1,0.4,0.1c0.2,0.1,0.3,0.2,0.4,0.4c0.1,0.1,0.1,0.2,0.2,0.4c0,0.1,0.1,0.2,0.1,0.4c0,0,0,0.1,0,0.1
	c0.1,0.6,0.1,1.3,0,1.9c0,0.2,0,0.5-0.1,0.7c0,0.1-0.1,0.2-0.1,0.3c-0.1,0.3-0.3,0.5-0.6,0.6c-0.2,0.1-0.4,0.1-0.6,0.1
	c-0.1,0-0.3,0-0.4,0c-0.2,0-0.4-0.1-0.6-0.1c-0.3-0.1-0.5-0.3-0.6-0.5c-0.1-0.1-0.1-0.2-0.1-0.4c0-0.1-0.1-0.2-0.1-0.4
	c0-0.3-0.1-0.5-0.1-0.8C54.9,44.4,54.9,44.3,54.9,44.2C54.9,44.2,54.9,44.2,54.9,44.2z M56,44.1c0,0.2,0,0.4,0,0.7
	c0,0.2,0,0.4,0.1,0.5c0,0.1,0,0.2,0.1,0.3c0.1,0.2,0.2,0.3,0.4,0.3c0.1,0,0.2,0,0.3,0c0.1,0,0.1-0.1,0.2-0.1c0.1,0,0.1-0.1,0.1-0.2
	c0-0.1,0-0.1,0.1-0.2c0-0.1,0-0.2,0.1-0.3c0-0.3,0.1-0.6,0-0.9c0-0.3,0-0.6,0-0.9c0-0.1,0-0.3-0.1-0.4c0-0.1,0-0.1-0.1-0.2
	c0,0,0-0.1-0.1-0.1c-0.1-0.1-0.2-0.2-0.3-0.2c-0.1,0-0.2,0-0.2,0c-0.1,0-0.2,0.1-0.2,0.1c-0.1,0.1-0.1,0.1-0.1,0.2
	c-0.1,0.2-0.1,0.4-0.1,0.6c0,0.2,0,0.4,0,0.6C56,44,56,44.1,56,44.1z M42.4,45.3c0-0.3,0-0.6,0-1c0,0,0-0.1,0-0.1c0,0,0-0.1,0-0.1
	c0,0,0-0.1-0.1-0.1c0,0-0.1,0-0.1,0c-0.4,0-0.8,0-1.1,0c0,0-0.1,0-0.1,0c0,0-0.1,0.1-0.1,0.1c0,0,0,0,0,0c0,0.1,0,0.2,0,0.3
	c0,0,0,0.1,0,0.1c0,0.1,0,0.1,0.1,0.1c0,0,0.1,0.1,0.1,0.1c0.1,0,0.1,0,0.2,0c0,0,0.1,0,0.1,0c0,0,0.1,0.1,0.1,0.1c0,0,0,0.1,0,0.1
	c0,0.2,0,0.4,0,0.6c0,0,0,0.1,0,0.1c0,0,0,0.1,0,0.1c0,0-0.1,0-0.1,0.1C41.1,46,40.9,46,40.8,46c-0.2,0-0.3-0.1-0.4-0.2
	c-0.1-0.1-0.1-0.2-0.1-0.3c0-0.1-0.1-0.3-0.1-0.4c0-0.1,0-0.2,0-0.3c0-0.3,0-0.7,0-1c0-0.2,0-0.3,0-0.5c0-0.1,0-0.2,0.1-0.4
	c0-0.1,0.1-0.2,0.2-0.3c0.1-0.1,0.1-0.1,0.2-0.1c0.1,0,0.2,0,0.3,0c0,0,0,0,0.1,0c0.1,0,0.2,0.1,0.2,0.3c0,0.1,0.1,0.2,0.1,0.3
	c0,0,0,0.1,0,0.1c0,0.1,0,0.1,0.1,0.1c0,0,0.1,0,0.2,0c0.2,0,0.4,0,0.6,0c0,0,0,0,0,0c0.1,0,0.2-0.1,0.2-0.2c0,0,0-0.1,0-0.1
	c0-0.1,0-0.1,0-0.2c0-0.1,0-0.2-0.1-0.3c-0.1-0.3-0.2-0.5-0.5-0.6c-0.1-0.1-0.3-0.2-0.5-0.2c-0.3-0.1-0.6-0.1-0.9,0
	c-0.1,0-0.3,0-0.4,0.1c-0.4,0.1-0.7,0.4-0.8,0.8c-0.1,0.1-0.1,0.3-0.1,0.4c0,0.2-0.1,0.4-0.1,0.6c0,0.1,0,0.1,0,0.2
	c0,0.3,0,0.6,0,0.9c0,0.3,0,0.6,0.1,0.8c0,0.1,0,0.2,0.1,0.3c0.1,0.4,0.4,0.7,0.8,0.8c0.2,0.1,0.4,0.1,0.6,0.1c0.2,0,0.5,0,0.7,0
	c0.2,0,0.4,0,0.6-0.1c0.1,0,0.1,0,0.2,0c0,0,0,0,0.1,0c0.1,0,0.2-0.1,0.2-0.2c0-0.1,0-0.1,0-0.2C42.4,45.9,42.4,45.6,42.4,45.3
	C42.4,45.3,42.4,45.3,42.4,45.3z M62.6,43.6c0-0.5,0-1,0-1.5c0-0.1,0-0.2,0-0.3c0-0.1-0.1-0.1-0.1-0.1c0,0-0.1,0-0.1,0
	c-0.2,0-0.4,0-0.6,0c0,0-0.1,0-0.1,0c0,0,0,0-0.1,0c0,0,0,0-0.1,0.1c0,0.1,0,0.2,0,0.2c0,0.4,0,0.8,0,1.1c0,0.5,0,1.1,0,1.6
	c0,0.2,0,0.4,0,0.5c0,0.1,0,0.2-0.1,0.3c-0.1,0.1-0.2,0.2-0.3,0.2c0,0-0.1,0-0.1,0c-0.1,0-0.1,0-0.2,0c0,0-0.1,0-0.1,0
	c-0.2-0.1-0.3-0.2-0.4-0.4c0-0.2-0.1-0.3-0.1-0.5c0-0.2,0-0.4,0-0.6c0-0.8,0-1.6,0-2.4c0,0,0-0.1,0-0.1c0,0,0-0.1-0.1-0.1
	c0,0-0.1,0-0.1,0c-0.2,0-0.4,0-0.6,0c0,0,0,0-0.1,0c0,0-0.1,0-0.1,0c0,0-0.1,0-0.1,0.1c0,0.1,0,0.1,0,0.2c0,1.1,0,2.1,0,3.2
	c0,0.1,0,0.1,0,0.2c0,0.1,0,0.2,0.1,0.4c0.1,0.4,0.4,0.7,0.8,0.8c0.1,0.1,0.3,0.1,0.5,0.1c0.3,0,0.6,0,0.9,0c0.2,0,0.3-0.1,0.4-0.2
	c0.3-0.2,0.5-0.4,0.6-0.8c0-0.1,0.1-0.3,0.1-0.4c0-0.1,0-0.2,0-0.3C62.6,44.6,62.6,44.1,62.6,43.6C62.6,43.6,62.6,43.6,62.6,43.6z
	 M25.1,45.1c-0.1,0-0.2,0-0.3,0c0,0-0.1,0-0.1,0c-0.1,0-0.1,0.1-0.1,0.1c0,0.1,0,0.1,0,0.2c0,0.2,0,0.3,0.1,0.5
	c0.1,0.4,0.4,0.6,0.8,0.7c0.1,0,0.3,0.1,0.4,0.1c0.3,0,0.5,0,0.8-0.1c0.1,0,0.2,0,0.2-0.1c0.3-0.1,0.5-0.3,0.7-0.6
	c0.1-0.2,0.1-0.5,0.1-0.8c0-0.1,0-0.1,0-0.2c-0.1-0.2-0.1-0.4-0.3-0.6c-0.1-0.1-0.2-0.2-0.3-0.2c-0.1-0.1-0.3-0.2-0.5-0.3
	c-0.1-0.1-0.2-0.1-0.3-0.2c-0.1-0.1-0.2-0.1-0.3-0.2c-0.1-0.1-0.1-0.1-0.2-0.2c-0.1-0.1-0.1-0.2-0.1-0.4c0,0,0,0,0-0.1
	c0-0.1,0-0.2,0.1-0.3c0.1-0.1,0.2-0.2,0.3-0.2c0.1,0,0.2,0,0.2,0c0.1,0,0.2,0.1,0.2,0.1c0,0,0.1,0.1,0.1,0.1c0,0.1,0,0.2,0.1,0.3
	c0,0.1,0.1,0.1,0.1,0.1c0,0,0.1,0,0.1,0c0.2,0,0.4,0,0.6,0c0,0,0,0,0.1,0c0.1,0,0.1-0.1,0.1-0.1c0-0.1,0-0.2,0-0.3
	c0-0.1,0-0.2-0.1-0.3c-0.1-0.4-0.4-0.6-0.8-0.7c-0.2,0-0.4-0.1-0.6-0.1c-0.2,0-0.4,0-0.6,0.1c-0.2,0-0.4,0.1-0.5,0.2
	c-0.3,0.2-0.5,0.5-0.5,1c0,0.1,0,0.2,0,0.3c0,0.1,0,0.3,0.1,0.4c0.1,0.2,0.2,0.3,0.3,0.4c0.1,0.1,0.2,0.2,0.3,0.3
	c0.1,0.1,0.3,0.2,0.4,0.3c0.1,0.1,0.3,0.2,0.4,0.2c0.1,0,0.2,0.1,0.2,0.2c0.1,0.1,0.2,0.2,0.2,0.3c0,0.1,0.1,0.2,0.1,0.3
	c0,0,0,0,0,0c0,0.1-0.1,0.2-0.1,0.3c-0.1,0.1-0.1,0.1-0.2,0.1c-0.1,0-0.2,0-0.2,0c0,0-0.1,0-0.1,0c-0.1,0-0.2-0.1-0.2-0.1
	c-0.1-0.1-0.1-0.2-0.1-0.3c0-0.1,0-0.1,0-0.2c0-0.1,0-0.1-0.1-0.1c0,0-0.1,0-0.1,0C25.4,45.1,25.2,45.1,25.1,45.1
	C25.1,45.1,25.1,45.1,25.1,45.1z M47.7,45.1c0,0.2,0,0.3,0.1,0.5c0,0.2,0.1,0.4,0.2,0.5c0.1,0.2,0.3,0.4,0.6,0.5
	c0.2,0.1,0.3,0.1,0.5,0.1c0.1,0,0.2,0,0.4,0c0.1,0,0.3,0,0.4-0.1c0.3-0.1,0.6-0.3,0.8-0.6c0.1-0.1,0.1-0.3,0.2-0.5
	c0-0.1,0-0.1,0-0.2c0-0.1,0-0.2,0-0.2c0,0,0-0.1,0-0.1c0-0.1-0.1-0.1-0.1-0.1c-0.2,0-0.5,0-0.7,0c0,0,0,0-0.1,0c0,0-0.1,0.1-0.1,0.1
	c0,0.1,0,0.1,0,0.2c0,0.1,0,0.2,0,0.2c0,0.1-0.1,0.2-0.2,0.3c0,0-0.1,0-0.1,0.1c-0.1,0-0.2,0.1-0.3,0c0,0-0.1,0-0.1,0
	c-0.1,0-0.2-0.1-0.2-0.2c0-0.1-0.1-0.1-0.1-0.2c0-0.1,0-0.2-0.1-0.3c0-0.1,0-0.3,0-0.4c0-0.4,0-0.8,0-1.3c0-0.1,0-0.3,0-0.4
	c0-0.1,0-0.2,0.1-0.3c0-0.1,0.1-0.2,0.1-0.3c0.1-0.1,0.2-0.1,0.3-0.2c0.1,0,0.1,0,0.2,0c0,0,0.1,0,0.1,0c0,0,0.1,0.1,0.1,0.1
	c0,0.1,0.1,0.1,0.1,0.2c0,0.1,0,0.2,0.1,0.3c0,0,0,0.1,0.1,0.1c0,0,0.1,0.1,0.1,0.1c0.2,0,0.5,0,0.7,0c0,0,0,0,0.1,0
	c0,0,0.1-0.1,0.1-0.1c0,0,0,0,0-0.1c0-0.2,0-0.5-0.1-0.7c-0.1-0.4-0.4-0.6-0.8-0.7c-0.3-0.1-0.6-0.1-0.9,0c-0.1,0-0.2,0-0.3,0.1
	c-0.3,0.1-0.6,0.3-0.7,0.6c0,0,0,0.1-0.1,0.1c-0.1,0.2-0.1,0.4-0.2,0.7c0,0.3,0,0.7,0,1C47.7,44.5,47.7,44.8,47.7,45.1z M29.5,44.6
	c0,0.6,0,1.1,0,1.7c0,0.1,0,0.1,0,0.2c0,0.1,0.1,0.1,0.1,0.1c0,0,0.1,0,0.1,0c0.2,0,0.4,0,0.6,0c0,0,0.1,0,0.1,0
	c0.1,0,0.1-0.1,0.1-0.1c0,0,0-0.1,0-0.1c0-0.1,0-0.2,0-0.3c0-1.1,0-2.2,0-3.2c0-0.1,0-0.1,0-0.2c0-0.1,0.1-0.1,0.1-0.1
	c0,0,0.1,0,0.1,0c0.2,0,0.4,0,0.6,0c0,0,0.1,0,0.1,0c0,0,0,0,0.1,0c0,0,0-0.1,0-0.1c0-0.1,0-0.3,0-0.4c0-0.2-0.1-0.2-0.2-0.2
	c0,0-0.1,0-0.1,0c-0.2,0-0.5,0-0.7,0c-0.5,0-1.1,0-1.6,0c-0.1,0-0.3,0-0.4,0c0,0-0.1,0-0.1,0c0,0-0.1,0-0.1,0c0,0-0.1,0-0.1,0.1
	c0,0.2,0,0.4,0,0.6c0,0,0,0,0,0c0,0,0.1,0.1,0.1,0.1c0,0,0.1,0,0.1,0c0.2,0,0.4,0,0.6,0c0,0,0.1,0,0.1,0c0.1,0,0.1,0.1,0.1,0.1
	c0,0.1,0,0.1,0,0.2C29.5,43.5,29.5,44.1,29.5,44.6C29.5,44.6,29.5,44.6,29.5,44.6z M51.7,44.2c0,0.5,0,1,0,1.6c0,0.2,0,0.4,0,0.6
	c0,0.1,0,0.1,0,0.2c0,0,0,0.1,0.1,0.1c0,0,0.1,0,0.1,0c0,0,0.1,0,0.1,0c0.6,0,1.3,0,1.9,0c0,0,0.1,0,0.1,0c0,0,0,0,0.1,0
	c0.1,0,0.1-0.1,0.1-0.1c0,0,0-0.1,0-0.1c0-0.2,0-0.3,0-0.5c0,0,0,0,0-0.1c0-0.1-0.1-0.1-0.1-0.1c-0.1,0-0.1,0-0.2,0
	c-0.3,0-0.6,0-0.9,0c-0.1,0-0.1,0-0.2,0c-0.1,0-0.2-0.1-0.2-0.2c0-0.1,0-0.1,0-0.2c0-1.1,0-2.2,0-3.3c0-0.1,0-0.1,0-0.2
	c0,0,0-0.1,0-0.1c0,0,0,0-0.1-0.1c0,0-0.1,0-0.1,0c-0.2,0-0.4,0-0.6,0c0,0-0.1,0-0.1,0c0,0-0.1,0.1-0.1,0.1c0,0.1,0,0.2,0,0.2
	C51.7,42.8,51.7,43.5,51.7,44.2C51.7,44.2,51.7,44.2,51.7,44.2z M33.4,44.2c0-0.6,0-1.3,0-1.9c0-0.1,0-0.2,0-0.3c0,0,0-0.1,0-0.1
	c0,0,0-0.1-0.1-0.1c0,0,0,0-0.1,0c-0.2,0-0.5,0-0.7,0c0,0-0.1,0-0.1,0c0,0,0,0-0.1,0.1c0,0,0,0.1,0,0.1c0,0.1,0,0.1,0,0.2
	c0,0.3,0,0.5,0,0.8c0,1.1,0,2.1,0,3.2c0,0.1,0,0.2,0,0.3c0,0,0,0.1,0,0.1c0,0.1,0.1,0.1,0.1,0.1c0,0,0.1,0,0.1,0c0.2,0,0.4,0,0.6,0
	c0,0,0.1,0,0.1,0c0.1,0,0.1-0.1,0.1-0.1c0-0.1,0-0.2,0-0.2C33.4,45.6,33.4,44.9,33.4,44.2C33.4,44.2,33.4,44.2,33.4,44.2z
	 M45.4,42.5c0-0.2,0-0.4,0-0.6c0-0.1,0-0.1,0-0.2c0,0,0-0.1,0-0.1c0-0.1-0.1-0.1-0.1-0.1c-0.1,0-0.3,0-0.4,0c0,0,0,0,0,0
	c0,0,0,0-0.1,0.1c0,0,0,0.1,0,0.1c0,0.1,0,0.2,0,0.3c0,1.5,0,3,0,4.6c0,0,0,0.1,0,0.1c0,0,0,0,0.1,0.1c0,0,0.1,0,0.1,0
	c0.1,0,0.2,0,0.4,0c0,0,0,0,0,0c0,0,0.1-0.1,0.1-0.1c0,0,0-0.1,0-0.1c0-0.1,0-0.2,0-0.3c0-0.7,0-1.4,0-2.1
	C45.4,43.6,45.4,43.1,45.4,42.5z"/>
</svg>
